<?xml version="1.0" encoding="UTF-8"?>
<svg id="Livello_2" xmlns="http://www.w3.org/2000/svg" version="1.1" viewBox="0 0 148.8 63.5">
  <!-- Generator: Adobe Illustrator 29.1.0, SVG Export Plug-In . SVG Version: 2.1.0 Build 142)  -->
  <g id="Marchi">
    <g>
      <g>
        <path d="M89.8,38.7c.3,1.6.3,3.3,0,4.9h-15.9v-24.1c2-.4,4-.4,5.9,0v19.2h10Z"/>
        <path d="M99.7,43.6c-2,.3-4,.3-5.9,0v-24.1c2-.4,4-.4,5.9,0v24.1Z"/>
        <path d="M126.7,43.6c-1.6.3-3.1.3-4.6,0l-11.3-14.2v14.2c-2,.3-4,.3-5.9,0v-24.1c1.6-.3,3.1-.3,4.6,0l11.3,14.2v-14.2c2-.4,4-.4,5.9,0v24.1Z"/>
        <path d="M148.6,38.7c.3,1.6.3,3.3,0,4.9h-16.8v-24.1h16.8c.3,1.7.3,3.3,0,4.9h-10.9v4.5h9.6c.3,1.7.3,3.3,0,4.9h-9.6v4.8h10.9Z"/>
      </g>
      <g>
        <path d="M49.3,28.1c-2.4.9-5,.2-6.8-1.5l2.1-1c.7-.3,1.1-1,1.1-1.7v-.4c0-.9-.6-1.7-1.5-2l-1.1-.3c-.5-.1-.8-.5-1-.9-.2-.4,0-.9.2-1.3l1.6-2.3c.5-.7.7-1.6.5-2.5l-.6-2.7c-.2-.9-1.1-1.6-2-1.6-1.4,0-2.8.6-3.9,1.5l-1.4,1.1c-.7.6-1.7.6-2.4.2-2.6-1.5-6-1.3-8.4.7l-9,7.4c-.6.5-.8,1.2-.6,1.9.2.7.8,1.3,1.5,1.4l4.5.8c-2,2.8-8.5,12.4-11.5,22.5-4.8-6.7-6.5-15.6-3.7-23.9C10.8,10.2,25.8,2.4,38.8,6.5c3.9,1.2,7.6,3.5,10.3,6.5,1.8,1.9,3.2,4.3,4,6.7,1.2,3.4-.5,7.1-3.9,8.4Z"/>
        <path d="M54,42c-2.3,11.3-14.9,18-26,16.1-6.4-.9-11.9-4.1-15.9-8.7,3.1-12,12.1-24.1,12.2-24.2,0,0,0,0,0-.1.2-.1.3-.4.4-.6,0-.2,0-.5-.1-.7s-.4-.3-.6-.4l-6.3-1.1s0,0,0,0c0,0,0,0,0,0l9-7.4c1.8-1.5,4.3-1.7,6.3-.5,1.4.8,3.2.7,4.5-.4l1.4-1.1c.8-.7,1.8-1.1,2.8-1.1.1,0,.2,0,.2.1l.6,2.7c0,.4,0,.8-.2,1.1l-1.6,2.3c-.6.9-.7,2-.4,2.9s1.2,1.7,2.2,2l1.1.3c.1,0,.2.1.2.3v.4s0,.1,0,.1l-2.7,1.4c-1.2-1-2.7-1.6-4.1-1.9-3.5-.7-7.4,1.2-8.5,4.5-1.6,4-.7,9.1,3.5,11.3,3.7,1.8,8.3,0,10.6-3.2,2.1-2.8,6.1-3.5,9-1.3,2.4,1.7,3,4.7,2.3,7.3h0Z"/>
      </g>
      <path d="M31.8,63.5C14.2,63.5,0,49.3,0,31.8S14.2,0,31.8,0s31.8,14.2,31.8,31.8-14.2,31.8-31.8,31.8h0ZM31.8,2.6C15.7,2.6,2.6,15.7,2.6,31.8s13.1,29.2,29.2,29.2,29.2-13.1,29.2-29.2S47.8,2.6,31.8,2.6Z"/>
    </g>
  </g>
</svg>